# xmcd CD database file
#
# Track frame offsets:
#	150
#	21267
#	39575
#	63312
#	75577
#	92075
#	114535
#	128782
#	142147
#	155395
#	165282
#	184245
#	199822
#	210350
#	239267
#	256577
#	274480
#	286820
#	312522
#	328247
#
# Disc length: 4511 seconds
#
# Revision: 3
# Processed by: cddbd v1.5.2PL0 Copyright (c) Steve Scherf et al.
# Submitted via: CDex 1.70beta2
#
DISCID=1e119d14
DTITLE=Creedence Clearwater Revival - Chronicle Volume Two: Twenty Great CCR Classics
DYEAR=1986
DGENRE=Rock
TTITLE0=Walk On The Water
TTITLE1=Susie Q (Part 2)
TTITLE2=Born On The Bayou
TTITLE3=Good Golly Miss Molly
TTITLE4=Tombstone Shadow
TTITLE5=Wrote A Song For Everyone
TTITLE6=Night Time Is The Right Time
TTITLE7=Cotton Fields
TTITLE8=It Came Out Of The Sky
TTITLE9=Don't Look Now (It Ain't You Or Me)
TTITLE10=The Midnight Special
TTITLE11=Before You Accuse Me
TTITLE12=My Baby Left Me
TTITLE13=Pagan Baby
TTITLE14=(Wish I Could) Hideaway
TTITLE15=It's Just A Thought
TTITLE16=Molina
TTITLE17=Born To Move
TTITLE18=Lookin' For A Reason
TTITLE19=Hello Mary Lou
EXTD=YEAR: 1986
EXTT0=
EXTT1=
EXTT2=
EXTT3=
EXTT4=
EXTT5=
EXTT6=
EXTT7=
EXTT8=
EXTT9=
EXTT10=
EXTT11=
EXTT12=
EXTT13=
EXTT14=
EXTT15=
EXTT16=
EXTT17=
EXTT18=
EXTT19=
PLAYORDER=
